g object1
o object1
v 1.60023028 -0.00000000 -4.46390327
v 7.31824491 -0.00000000 -4.33137804
v 12.98747593 -0.00000000 -3.56227356
v 18.53790970 -0.00000000 -2.18538615
v 19.97969591 -0.00000000 -1.28495496
v 20.34752803 -0.00000000 -0.69694052
v 20.46362124 -0.00000000 -0.12490591
v 20.42048138 -0.00000000 0.45283247
v 20.20368944 -0.00000000 0.98902630
v 19.01071553 -0.00000000 1.97265747
v 13.49532297 0.00000000 3.47061410
v 7.83360855 -0.00000000 4.28136567
v 2.11725262 -0.00000000 4.49926985
v -1.10233932 -0.00000000 3.94805418
v -3.22634767 -0.00000000 2.76425308
v -4.12446919 0.00000000 1.55963026
v -4.46035244 -0.00000000 0.22155152
v -4.29531491 -0.00000000 -1.12322209
v -3.58632177 -0.00000000 -2.39181191
v -1.58759120 -0.00000000 -3.76877387
v 8.09665196 -0.00000000 0.01128530
v 1.60023028 4.00000000 -4.46390327
v 7.31741579 4.00000000 -4.33150385
v 12.98947989 4.00000000 -3.56188087
v 18.53792836 4.00000000 -2.18532188
v 19.97955363 4.00000000 -1.28482163
v 19.01072636 4.00000000 1.97266732
v 13.50018599 4.00000000 3.46972730
v 7.83333616 4.00000000 4.28138710
v 2.11727339 4.00000000 4.49926090
v -1.10236549 4.00000000 3.94788688
v -3.22631503 4.00000000 2.76421076
v -4.12442962 4.00000000 1.55959857
v -3.58639509 4.00000000 -2.39186675
v -1.58766214 4.00000000 -3.76879414
v 20.46355260 4.00000000 -0.12490074
v 20.20374742 4.00000000 0.98906436
v 20.34754168 4.00000000 -0.69695538
v -4.46034807 4.00000000 0.22155835
v -4.29540750 4.00000000 -1.12323506
v 20.42052030 4.00000000 0.45286723
v 20.43002066 2.00000000 0.40707793
v 8.09688601 4.00000000 0.01126433
vt 0.99228082 0.24336951
vt 0.97766816 0.47268636
vt 0.89286413 0.70004685
vt 0.74104393 0.92264303
vt 0.64175941 0.98046482
vt 0.57692295 0.99521647
vt 0.51384852 0.99987230
vt 0.45014518 0.99814221
vt 0.39102266 0.98944792
vt 0.28256422 0.94160456
vt 0.11739452 0.72041367
vt 0.02799836 0.49335466
vt 0.00397152 0.26410436
vt 0.06475040 0.13498489
vt 0.19528026 0.04980306
vt 0.32810591 0.01378455
vt 0.47564697 0.00031418
vt 0.62392620 0.00693290
vt 0.76380511 0.03536655
vt 0.91563353 0.11552421
vt 0.49883164 0.50390385
vt 0.00000000 0.06528016
vt 0.00000000 0.00000000
vt 1.00000000 0.00000000
vt 1.00000000 0.06528016
vt 0.00000000 0.12671930
vt 1.00000000 0.12671930
vt 0.00000000 0.21759989
vt 1.00000000 0.21759989
vt 0.00000000 0.27193141
vt 1.00000000 0.27193141
vt 0.00000000 0.53388191
vt 0.00000000 0.43492599
vt 1.00000000 0.43492599
vt 1.00000000 0.53388191
vt 0.00000000 0.59595191
vt 1.00000000 0.59595191
vt 0.00000000 0.65997925
vt 1.00000000 0.65997925
vt 0.00000000 0.70824772
vt 1.00000000 0.70824772
vt 0.00000000 0.79199433
vt 0.00000000 0.75651620
vt 1.00000000 0.75651620
vt 1.00000000 0.79199433
vt 0.00000000 0.94921437
vt 0.00000000 0.89842873
vt 1.00000000 0.89842873
vt 1.00000000 0.94921437
vt 0.00000000 0.38059447
vt 0.00000000 0.32626294
vt 1.00000000 0.32626294
vt 1.00000000 0.38059447
vt 0.00000000 0.29909718
vt 1.00000000 0.29909718
vt 0.00000000 0.86295060
vt 0.00000000 0.82747246
vt 1.00000000 0.82747246
vt 1.00000000 0.86295060
vt 1.00000000 1.00000000
vt 0.00000000 1.00000000
vt 0.00000000 0.35661315
vt 1.00000000 0.35661431
vt 0.50000000 0.35449038
vt 0.24337122 0.99227799
vt 0.11552582 0.91561532
vt 0.03536544 0.76374641
vt 0.00693146 0.62382714
vt 0.00031661 0.47550586
vt 0.01378831 0.32793006
vt 0.04980627 0.19507054
vt 0.13498582 0.06451912
vt 0.26410674 0.00370664
vt 0.49334500 0.02773654
vt 0.72056075 0.11723196
vt 0.94160566 0.28237213
vt 0.98945025 0.39085553
vt 0.99814377 0.44999417
vt 0.99986951 0.51371985
vt 0.99521717 0.57681017
vt 0.98045916 0.64164858
vt 0.92264490 0.74096607
vt 0.70013888 0.89278619
vt 0.47265436 0.97767530
vt 0.50391436 0.49869978
vn 0.00000000 -1.00000000 0.00000000
vn 0.00000000 -1.00000000 0.00000000
vn 0.00000000 -1.00000000 0.00000000
vn 0.00000000 -1.00000000 0.00000000
vn 0.00000000 -1.00000000 0.00000000
vn 0.00000000 -1.00000000 0.00000000
vn 0.00000000 -1.00000000 0.00000000
vn 0.00000000 -1.00000000 0.00000000
vn 0.00000000 -1.00000000 0.00000000
vn 0.00000000 -1.00000000 0.00000000
vn 0.00000000 -1.00000000 0.00000000
vn 0.00000000 -1.00000000 0.00000000
vn 0.00000000 -1.00000000 0.00000000
vn 0.00000000 -1.00000000 0.00000000
vn 0.00000000 -1.00000000 0.00000000
vn 0.00000000 -1.00000000 0.00000000
vn 0.00000000 -1.00000000 0.00000000
vn 0.00000000 -1.00000000 0.00000000
vn 0.00000000 -1.00000000 0.00000000
vn 0.00000000 -1.00000000 0.00000000
vn 0.00000000 -1.00000000 0.00000000
vn 0.09221311 0.00000000 -0.99573929
vn -0.08304548 0.00000000 -0.99654576
vn -0.08304548 0.00000000 -0.99654576
vn 0.09221311 0.00000000 -0.99573929
vn 0.17391695 0.00000000 -0.98476032
vn 0.17391695 0.00000000 -0.98476032
vn 0.37810515 0.00000000 -0.92576265
vn 0.37810515 0.00000000 -0.92576265
vn 0.73803680 0.00000000 -0.67476046
vn 0.73803680 0.00000000 -0.67476046
vn 0.18150169 0.00000000 0.98339063
vn 0.44666807 0.00000000 0.89469974
vn 0.44666807 0.00000000 0.89469974
vn 0.18150169 0.00000000 0.98339063
vn 0.10079391 0.00000000 0.99490733
vn 0.10079391 0.00000000 0.99490733
vn -0.05432560 0.00000000 0.99852327
vn -0.05432560 0.00000000 0.99852327
vn -0.31564839 0.00000000 0.94887623
vn -0.31564839 0.00000000 0.94887623
vn -0.90529155 0.00000000 0.42479078
vn -0.67498433 0.00000000 0.73783207
vn -0.67498433 0.00000000 0.73783207
vn -0.90529155 0.00000000 0.42479078
vn -0.37860062 0.00000000 -0.92556014
vn -0.76164712 0.00000000 -0.64799202
vn -0.76164712 0.00000000 -0.64799202
vn -0.37860062 0.00000000 -0.92556014
vn 0.85260289 0.00000000 0.52255938
vn 0.99875091 0.00000000 -0.04996619
vn 0.99875091 0.00000000 -0.04996619
vn 0.85260289 0.00000000 0.52255938
vn 0.93459074 0.00000000 -0.35572481
vn 0.93459074 0.00000000 -0.35572481
vn -0.95306450 0.00000000 -0.30276735
vn -0.99836314 0.00000000 0.05719303
vn -0.99836314 0.00000000 0.05719303
vn -0.95306450 0.00000000 -0.30276735
vn 0.97633731 -0.00000000 0.21625322
vn 0.97633422 0.00000000 0.21626718
vn 0.98157374 0.00000000 0.19108374
vn 0.00000000 1.00000000 0.00000000
vn 0.00000000 1.00000000 0.00000000
vn 0.00000000 1.00000000 0.00000000
vn 0.00000000 1.00000000 0.00000000
vn 0.00000000 1.00000000 0.00000000
vn 0.00000000 1.00000000 0.00000000
vn 0.00000000 1.00000000 0.00000000
vn 0.00000000 1.00000000 0.00000000
vn 0.00000000 1.00000000 0.00000000
vn 0.00000000 1.00000000 0.00000000
vn 0.00000000 1.00000000 0.00000000
vn 0.00000000 1.00000000 0.00000000
vn 0.00000000 1.00000000 0.00000000
vn 0.00000000 1.00000000 0.00000000
vn 0.00000000 1.00000000 0.00000000
vn 0.00000000 1.00000000 0.00000000
vn 0.00000000 1.00000000 0.00000000
vn 0.00000000 1.00000000 0.00000000
vn 0.00000000 1.00000000 0.00000000
vn 0.00000000 1.00000000 0.00000000
vn 0.00000000 1.00000000 0.00000000
s 1
f 1/1/1 2/2/2 21/21/21
f 19/19/19 20/20/20 21/21/21
f 18/18/18 19/19/19 21/21/21
f 17/17/17 18/18/18 21/21/21
f 16/16/16 17/17/17 21/21/21
f 15/15/15 16/16/16 21/21/21
f 14/14/14 15/15/15 21/21/21
f 13/13/13 14/14/14 21/21/21
f 12/12/12 13/13/13 21/21/21
f 11/11/11 12/12/12 21/21/21
f 10/10/10 11/11/11 21/21/21
f 9/9/9 10/10/10 21/21/21
f 8/8/8 9/9/9 21/21/21
f 7/7/7 8/8/8 21/21/21
f 6/6/6 7/7/7 21/21/21
f 5/5/5 6/6/6 21/21/21
f 4/4/4 5/5/5 21/21/21
f 3/3/3 4/4/4 21/21/21
f 2/2/2 3/3/3 21/21/21
f 20/20/20 1/1/1 21/21/21
s 2
f 2/22/22 1/23/23 23/25/25
f 3/26/26 23/25/25 24/27/27
f 4/28/28 24/27/27 25/29/29
f 4/28/28 25/29/29 26/31/31
f 6/54/54 26/31/31 38/55/55
f 6/54/54 38/55/55 36/52/52
f 36/52/52 41/63/61 42/64/62
f 37/53/53 9/50/50 42/64/62
f 10/33/33 9/50/50 27/34/34
f 10/33/33 27/34/34 28/35/35
f 11/32/32 28/35/35 29/37/37
f 13/38/38 29/37/37 30/39/39
f 14/40/40 30/39/39 31/41/41
f 15/43/43 31/41/41 32/44/44
f 16/42/42 32/44/44 33/45/45
f 17/57/57 33/45/45 39/58/58
f 17/57/57 39/58/58 40/59/59
f 18/56/56 40/59/59 34/48/48
f 19/47/47 34/48/48 35/49/49
f 35/49/49 22/60/24 20/46/46
f 20/46/46 19/47/47 35/49/49
f 19/47/47 18/56/56 34/48/48
f 18/56/56 17/57/57 40/59/59
f 17/57/57 16/42/42 33/45/45
f 16/42/42 15/43/43 32/44/44
f 15/43/43 14/40/40 31/41/41
f 14/40/40 13/38/38 30/39/39
f 13/38/38 12/36/36 29/37/37
f 12/36/36 11/32/32 29/37/37
f 11/32/32 10/33/33 28/35/35
f 9/50/50 37/53/53 27/34/34
f 8/62/60 7/51/51 42/64/62
f 9/50/50 8/62/60 42/64/62
f 41/63/61 37/53/53 42/64/62
f 7/51/51 36/52/52 42/64/62
f 7/51/51 6/54/54 36/52/52
f 6/54/54 5/30/30 26/31/31
f 5/30/30 4/28/28 26/31/31
f 4/28/28 3/26/26 24/27/27
f 22/60/24 1/61/23 20/46/46
f 1/23/23 22/24/24 23/25/25
f 3/26/26 2/22/22 23/25/25
s 3
f 22/65/63 35/66/64 43/85/83
f 24/83/81 23/84/82 43/85/83
f 25/82/80 24/83/81 43/85/83
f 26/81/79 25/82/80 43/85/83
f 38/80/78 26/81/79 43/85/83
f 36/79/77 38/80/78 43/85/83
f 41/78/76 36/79/77 43/85/83
f 37/77/75 41/78/76 43/85/83
f 27/76/74 37/77/75 43/85/83
f 28/75/73 27/76/74 43/85/83
f 29/74/72 28/75/73 43/85/83
f 30/73/71 29/74/72 43/85/83
f 31/72/70 30/73/71 43/85/83
f 32/71/69 31/72/70 43/85/83
f 33/70/68 32/71/69 43/85/83
f 39/69/67 33/70/68 43/85/83
f 40/68/66 39/69/67 43/85/83
f 34/67/65 40/68/66 43/85/83
f 35/66/64 34/67/65 43/85/83
f 23/84/82 22/65/63 43/85/83
